<?xml version="1.0" standalone="no"?>
<!DOCTYPE svg PUBLIC "-//W3C//DTD SVG 20010904//EN"
 "http://www.w3.org/TR/2001/REC-SVG-20010904/DTD/svg10.dtd">
<svg version="1.0" xmlns="http://www.w3.org/2000/svg"
 width="202.000000pt" height="202.000000pt" viewBox="0 0 202.000000 202.000000"
 preserveAspectRatio="xMidYMid meet">
<metadata>
Created by potrace 1.14, written by Peter Selinger 2001-2017
</metadata>
<g transform="translate(0.000000,202.000000) scale(0.100000,-0.100000)"
fill="#000000" stroke="none">
<path d="M976 1405 c-23 -27 -100 -126 -171 -220 -71 -93 -134 -175 -140 -181
-5 -7 -19 -24 -30 -40 -20 -28 -67 -85 -95 -114 -8 -9 -26 -30 -40 -48 -14
-18 -32 -42 -40 -52 -76 -94 -129 -167 -127 -175 3 -14 379 -14 392 0 12 12
66 80 210 265 58 74 115 146 125 160 11 14 29 36 40 50 10 14 67 86 126 160
58 74 116 148 128 163 11 16 30 37 40 48 11 10 16 22 12 26 -4 4 -93 8 -197 8
l-190 1 -43 -51z"/>
<path d="M80 1444 c0 -4 21 -32 48 -63 26 -31 54 -64 62 -74 8 -10 24 -29 35
-41 11 -13 38 -44 60 -71 22 -27 45 -53 50 -59 6 -6 32 -38 60 -71 52 -63 73
-88 124 -145 l31 -35 18 21 c9 12 44 56 77 99 33 43 73 93 89 112 l28 33 -38
50 c-21 28 -41 50 -45 50 -4 0 -10 8 -13 18 -4 9 -22 35 -42 57 -19 22 -49 59
-67 82 l-32 42 -222 1 c-123 0 -223 -3 -223 -6z"/>
<path d="M1490 1365 c-36 -47 -68 -85 -72 -85 -5 0 -8 -7 -8 -15 0 -7 -6 -18
-13 -22 -7 -4 -24 -24 -37 -43 -13 -19 -27 -37 -30 -40 -3 -3 -30 -36 -60 -75
-71 -91 -65 -83 -162 -206 -46 -58 -92 -118 -103 -133 -11 -15 -30 -39 -42
-54 -68 -84 -91 -117 -87 -121 7 -7 373 -8 383 -1 6 4 111 135 176 218 6 7 15
18 20 25 6 7 42 53 80 102 38 50 90 115 115 146 25 31 56 72 70 90 38 49 158
201 180 227 11 13 20 28 20 33 0 5 5 9 10 9 6 0 10 7 10 15 0 13 -28 15 -192
15 l-193 -1 -65 -84z"/>
</g>
</svg>
