<?xml version="1.0" encoding="utf-8"?>
<!-- Generator: Adobe Illustrator 23.0.2, SVG Export Plug-In . SVG Version: 6.00 Build 0)  -->
<svg version="1.1" id="Layer_1" xmlns="http://www.w3.org/2000/svg" xmlns:xlink="http://www.w3.org/1999/xlink" x="0px" y="0px"
	 viewBox="0 0 40 40" style="enable-background:new 0 0 40 40;" xml:space="preserve">
<style type="text/css">
	.st0{fill:#252525;}
</style>
<g>
	<g>
		<path class="st0" d="M20,0C9,0,0,9,0,20s9,20,20,20s20-9,20-20S31,0,20,0z M20,36.9c-9.3,0-16.9-7.6-16.9-16.9S10.7,3.1,20,3.1
			S36.9,10.7,36.9,20S29.3,36.9,20,36.9z"/>
	</g>
</g>
<g>
	<g>
		<path class="st0" d="M22.3,24c-0.3,0-0.5-0.1-0.7-0.3c-0.4-0.4-0.3-1,0.1-1.4c0.7-0.6,1.1-1.4,1.1-2.3s-0.4-1.6-1.1-2.3
			c-0.4-0.4-0.4-1-0.1-1.4c0.4-0.4,1-0.4,1.4-0.1c1.1,1,1.7,2.3,1.7,3.8s-0.6,2.7-1.7,3.7C22.8,23.9,22.5,24,22.3,24z"/>
	</g>
	<g>
		<path class="st0" d="M25.6,26.3c-0.2,0-0.4,0-0.5-0.2c-0.5-0.3-0.6-0.9-0.3-1.4c1.9-3,1.9-6.5,0-9.5c-0.3-0.5-0.2-1.1,0.3-1.4
			c0.5-0.3,1.1-0.2,1.4,0.3c2.3,3.6,2.3,8,0,11.6C26.3,26.1,26,26.3,25.6,26.3z"/>
	</g>
	<g>
		<path class="st0" d="M29.2,29c-0.1,0-0.3,0-0.4-0.1c-0.5-0.2-0.8-0.8-0.5-1.3c2.1-4.9,2.1-10.4,0-15.3c-0.2-0.5,0-1.1,0.5-1.3
			c0.5-0.2,1.1,0,1.3,0.5c2.3,5.4,2.3,11.4,0,16.8C29.9,28.8,29.6,29,29.2,29z"/>
	</g>
	<g>
		<path class="st0" d="M11.5,15.5h-2c-0.2,0-0.3,0.2-0.3,0.3v8.2c0,0.2,0.2,0.3,0.3,0.3h2c0.9,0,1.8,0.3,2.6,0.9l5.1,3.8
			c0.2,0.2,0.5,0,0.5-0.3V11.2c0-0.3-0.3-0.4-0.5-0.3l-5.1,3.8C13.3,15.2,12.4,15.5,11.5,15.5z"/>
	</g>
</g>
</svg>
