<?xml version="1.0" encoding="utf-8"?>
<!-- Generator: Adobe Illustrator 23.0.3, SVG Export Plug-In . SVG Version: 6.00 Build 0)  -->
<svg version="1.1" id="Layer_1" xmlns="http://www.w3.org/2000/svg" xmlns:xlink="http://www.w3.org/1999/xlink" x="0px" y="0px"
	 viewBox="0 0 40 40" style="enable-background:new 0 0 40 40;" xml:space="preserve">
<style type="text/css">
	.st0{fill:#FFFFFF;}
</style>
<g>
	<path class="st0" d="M15.6,24.9c-0.3-0.3-0.6-0.6-1.4-0.6c-2,0-3.3,1.3-3.3,2.9s1,2.9,3,2.9s3-1.3,3-2.9v-8.6l8.7-4.3v9.2
		c-0.1-0.3-0.6-0.5-1.3-0.6c-2-0.2-3.2,1.3-3.2,2.9s0.9,2.9,2.9,2.9s2.9-1.3,2.9-2.9V10l-11.2,5.7L15.6,24.9L15.6,24.9z"/>
	<path class="st0" d="M20,0C9,0,0,9,0,20s9,20,20,20s20-9,20-20S31,0,20,0z M20,36.9c-9.3,0-16.9-7.6-16.9-16.9S10.7,3.1,20,3.1
		S36.9,10.7,36.9,20S29.3,36.9,20,36.9z"/>
</g>
</svg>
