<?xml version="1.0" encoding="utf-8"?>
<!-- Generator: Adobe Illustrator 23.0.3, SVG Export Plug-In . SVG Version: 6.00 Build 0)  -->
<svg version="1.1" id="Capa_1" xmlns="http://www.w3.org/2000/svg" xmlns:xlink="http://www.w3.org/1999/xlink" x="0px" y="0px"
	 viewBox="0 0 40 40" style="enable-background:new 0 0 40 40;" xml:space="preserve">
<style type="text/css">
	.st0{fill:#FFFFFF;}
</style>
<g>
	<g>
		<path class="st0" d="M31.1,15.9c-0.6-0.3-1.2-0.1-1.5,0.4L29.1,17c-1.3-3.8-4.9-6.6-9.2-6.6c-5.3,0-9.6,4.3-9.6,9.6
			s4.3,9.6,9.6,9.6c0.6,0,1.1-0.5,1.1-1.1s-0.5-1.1-1.1-1.1c-4.1,0-7.4-3.3-7.4-7.3s3.3-7.3,7.4-7.3c3.2,0,6,2.1,7,4.9l-0.6-0.3
			c-0.6-0.3-1.2-0.1-1.5,0.4s-0.1,1.2,0.4,1.5l2.3,1.2c0.2,0.4,0.6,0.6,1,0.6c0.1,0,0.2,0,0.3-0.1l0,0c0.4,0,0.8-0.2,1-0.6l1.7-3
			C31.8,16.9,31.6,16.2,31.1,15.9z"/>
	</g>
</g>
<path class="st0" d="M20,0C9,0,0,9,0,20s9,20,20,20s20-9,20-20S31,0,20,0z M20,36.9c-9.3,0-16.9-7.6-16.9-16.9S10.7,3.1,20,3.1
	S36.9,10.7,36.9,20S29.3,36.9,20,36.9z"/>
</svg>
