<?xml version="1.0" encoding="utf-8"?>
<!-- Generator: Adobe Illustrator 23.0.2, SVG Export Plug-In . SVG Version: 6.00 Build 0)  -->
<svg version="1.1" id="Capa_1" xmlns="http://www.w3.org/2000/svg" xmlns:xlink="http://www.w3.org/1999/xlink" x="0px" y="0px"
	 viewBox="0 0 40 40" style="enable-background:new 0 0 40 40;" xml:space="preserve">
<style type="text/css">
	.st0{fill:#252525;}
</style>
<g>
	<path class="st0" d="M20,0C9,0,0,9,0,20s9,20,20,20s20-9,20-20S31,0,20,0z M20,37c-9.4,0-17-7.6-17-17c0-9.4,7.6-17,17-17
		s17,7.6,17,17C37,29.4,29.4,37,20,37z"/>
	<path class="st0" d="M20,8.9c-6.1,0-11.1,5-11.1,11.1c0,0.8,0.7,1.5,1.5,1.5s1.5-0.7,1.5-1.5c0-4.5,3.6-8.1,8.1-8.1
		c4.5,0,8.1,3.6,8.1,8.1c0,3.5-2.3,6.6-5.5,7.7l-0.2-1.3c-0.1-0.4-0.3-0.7-0.7-0.8c-0.4-0.1-0.7,0-1,0.2l-3.1,3.1
		c-0.2,0.2-0.3,0.5-0.3,0.8c0,0.3,0.2,0.6,0.5,0.7l4.1,2.3c0.2,0.1,0.3,0.1,0.5,0.1c0.2,0,0.4-0.1,0.6-0.2c0.3-0.2,0.5-0.6,0.4-1
		l-0.2-1.1c4.6-1.4,7.9-5.6,7.9-10.6C31.1,13.9,26.1,8.9,20,8.9z"/>
</g>
</svg>
