<?xml version="1.0" encoding="utf-8"?>
<!-- Generator: Adobe Illustrator 26.0.2, SVG Export Plug-In . SVG Version: 6.00 Build 0)  -->
<svg version="1.1" id="圖層_1" xmlns="http://www.w3.org/2000/svg" xmlns:xlink="http://www.w3.org/1999/xlink" x="0px" y="0px"
	 viewBox="0 0 602.4 100.26" style="enable-background:new 0 0 602.4 100.26;" xml:space="preserve">
<style type="text/css">
	.st0{fill:#FFFFFF;}
</style>
<g>
	<g>
		<g>
			<path class="st0" d="M160.96,100.25h15.28v-69.4l-15.28,15.27C160.96,45.45,160.96,100.25,160.96,100.25z"/>
			<path class="st0" d="M214.31,65.59l-34.63,34.67h76.98V31.11h-76.71L214.31,65.59z M241.3,46.57v38.21h-24.21l18.98-19.1
				l-19.15-19.11H241.3z"/>
		</g>
		<g>
			<polygon class="st0" points="270.79,100.25 339.35,100.25 339.35,84.54 285.93,84.37 286.1,31.61 270.79,31.61 			"/>
			<rect x="349.89" y="31.61" class="st0" width="15.43" height="68.64"/>
			<polygon class="st0" points="508.16,57.99 470.42,57.99 470.42,31.61 455.15,31.61 455.15,94.33 418.99,58.24 397.17,58.16 
				423.55,84.66 391.57,84.66 391.45,47.58 428.44,47.71 444.7,31.61 399.91,31.61 392.44,31.61 376.02,31.61 376.02,100.25 
				470.91,100.25 470.91,73.42 508.16,73.42 508.16,100.25 523.18,100.25 523.18,31.61 508.16,31.61 			"/>
			<polygon class="st0" points="534.04,31.66 534.04,47.46 560.67,47.46 560.67,100.25 576.1,100.25 576.1,47.46 602.4,47.46 
				602.4,31.66 			"/>
		</g>
	</g>
	<polygon class="st0" points="91.12,58.98 113.03,100.07 113.03,30.83 47.21,0 76.91,58.35 64.27,74.1 0,39.64 35.57,100.26 
		113.03,100.26 112.68,100.07 104.85,95.86 68.21,76.22 82.28,59.15 57.74,9.57 110.39,34.22 110.39,34.23 	"/>
</g>
</svg>
