<?xml version="1.0" encoding="utf-8"?>
<!-- Generator: Adobe Illustrator 26.0.2, SVG Export Plug-In . SVG Version: 6.00 Build 0)  -->
<svg version="1.1" id="圖層_1" xmlns="http://www.w3.org/2000/svg" xmlns:xlink="http://www.w3.org/1999/xlink" x="0px" y="0px"
	 viewBox="0 0 246.55 128.14" style="enable-background:new 0 0 246.55 128.14;" xml:space="preserve">
<style type="text/css">
	.st0{fill:#231815;}
</style>
<g>
	<polygon class="st0" points="40.39,41.47 27.65,17.79 4.8,17.79 29.77,53.06 	"/>
	<polygon class="st0" points="107.82,27.92 96.7,6.96 79.05,41.1 90.54,51.65 	"/>
	<polygon class="st0" points="125.64,61.89 125.64,57.89 123.64,57.89 110.83,45.08 98.03,57.89 70.9,57.89 70.9,21.58 49.62,0.97 
		49.62,57.89 0,57.89 0,61.89 28.14,61.89 28.14,94.45 5.8,127.17 49.14,94.45 49.14,61.89 70.9,61.89 70.9,111.22 91.81,111.22 
		91.81,61.89 	"/>
	<polygon class="st0" points="91.81,111.22 127.16,111.22 109.47,93.53 	"/>
	<polygon class="st0" points="228.19,38.76 214.21,52.76 242.18,52.76 	"/>
	<polygon class="st0" points="246.55,16.83 197.28,16.83 197.28,15.58 181.2,0 181.2,16.83 136.32,16.83 136.32,18.92 136.32,18.92 
		136.32,46.26 157.29,20.83 164.16,20.83 164.16,37.42 139.09,56.96 181.77,45.08 181.77,20.83 196.72,20.83 196.72,52.76 
		214.21,52.76 214.21,20.83 222.5,20.83 246.55,46.17 246.55,20.83 246.55,20.83 	"/>
	<polygon class="st0" points="172.98,78.32 227.95,78.32 227.95,74.32 227.95,74.32 227.95,61.9 227.95,61.9 227.95,57.9 
		151.4,57.9 151.4,61.9 205.68,61.9 205.68,74.32 151.4,74.32 151.4,76.32 151.39,76.32 143.65,92.52 142.69,92.52 142.69,94.52 
		142.69,94.52 142.69,94.52 142.69,96.52 210.28,96.52 205.41,116.11 190.39,116.11 202.42,128.14 227.45,128.14 235.98,96.52 
		236.52,96.52 236.52,92.52 165.76,92.52 	"/>
</g>
</svg>
